<svg xmlns="http://www.w3.org/2000/svg" xmlns:xlink="http://www.w3.org/1999/xlink" width="176.539" height="34" viewBox="0 0 176.539 34">
  <defs>
    <filter id="Path_1" x="0" y="0" width="176.539" height="34" filterUnits="userSpaceOnUse">
      <feOffset dy="6" input="SourceAlpha"/>
      <feGaussianBlur stdDeviation="3" result="blur"/>
      <feFlood flood-color="#fff" flood-opacity="0.161"/>
      <feComposite operator="in" in2="blur"/>
      <feComposite in="SourceGraphic"/>
    </filter>
  </defs>
  <g transform="matrix(1, 0, 0, 1, 0, 0)" filter="url(#Path_1)">
    <path id="Path_1-2" data-name="Path 1" d="M72.154,75.817h0a4.174,4.174,0,0,1-4.095,4.25H58.772a4.914,4.914,0,0,1-4.914-4.914V69.119h4.51v5.5a1.431,1.431,0,0,0,1.43,1.43h6.852a1.135,1.135,0,1,0,0-2.268H59.17l.019-2.219v-1.2h7.462a1.154,1.154,0,0,0,1.172-1.134h0A1.154,1.154,0,0,0,66.651,68.1H53.858V64.287h13.8a4.174,4.174,0,0,1,4.095,4.25,4.29,4.29,0,0,1-1.8,3.516A4.271,4.271,0,0,1,72.154,75.817Zm2.412,4.3h4.355V66H74.567ZM86.8,66H81.77v3.61H86.8V80.113h4.355V69.606h5.034V66H86.8Zm90.637,0H163.017v3.61h5.035V80.113h4.354V69.606h5.035ZM125.887,80.113h4.355V66h-4.355Zm29.165,0h4.355V66h-4.355Zm-39.9-16H110.7v4.138h4.45a3.862,3.862,0,1,1,0,7.724h-5.482V64.113h-4.321v16h9.8a8,8,0,0,0,8-8h0A8,8,0,0,0,115.149,64.113Zm27,1.883H140.11a7.058,7.058,0,0,0-7.058,7.058h0a7.058,7.058,0,0,0,7.058,7.059h5.921a5.186,5.186,0,0,0,5.186-5.129h0v-1.93h0v-1.9H140.1l1.75,3.248h5.155v.542a1.4,1.4,0,0,1-1.39,1.375h-4.952a3.261,3.261,0,0,1,0-6.521H151.22V66h-9.073Zm54.064,8.659h0l-5.454-7.529a3.362,3.362,0,0,0-5.447,0l-5.453,7.529h0l-3.864,5.335h5.266l2.507-3.462,4.268-5.892,2.445,3.375.97,1.339a.742.742,0,0,1-.6,1.178h-5.025V79.99h9.01A2.676,2.676,0,0,0,197,75.745Zm9.67,1.87a1.134,1.134,0,0,1-1.135-1.135V65.9H200.6V76.77a3.3,3.3,0,0,0,3.3,3.3H212.4V76.526Z" transform="translate(-44.86 -61.11)" fill="#fff"/>
  </g>
</svg>
